<mxfile host="app.diagrams.net" modified="2023-09-01T11:03:11.691Z" agent="Mozilla/5.0 (Windows NT 10.0; Win64; x64) AppleWebKit/537.36 (KHTML, like Gecko) Chrome/116.0.0.0 Safari/537.36" version="21.7.1" etag="e22rg8MxOc2PdD1GSa8W" type="github">
  <diagram name="PÃ¡gina-1" id="EUFy_3NUT2K4s5o_c-qf">
    <mxGraphModel>
      <root>
        <mxCell id="0" />
        <mxCell id="1" parent="0" />
      </root>
    </mxGraphModel>
  </diagram>
</mxfile>
